<mxfile host="Electron" modified="2023-09-13T19:30:12.774Z" agent="Mozilla/5.0 (Windows NT 10.0; Win64; x64) AppleWebKit/537.36 (KHTML, like Gecko) draw.io/21.6.5 Chrome/114.0.5735.243 Electron/25.3.1 Safari/537.36" etag="tRgvxJ8kCBrNwRidBezo" version="21.6.5" type="device" pages="3">
  <diagram name="Page-1" id="iT5GzWLj2NTcIyCXsf3c">
    <mxGraphModel dx="1257" dy="1929" grid="1" gridSize="10" guides="1" tooltips="1" connect="1" arrows="1" fold="1" page="1" pageScale="1" pageWidth="827" pageHeight="1169" math="0" shadow="0">
      <root>
        <mxCell id="0" />
        <mxCell id="1" parent="0" />
        <mxCell id="EZqbDn5W3lwKTQG9L9MM-1" value="&lt;font style=&quot;font-size: 20px;&quot;&gt;Produit&lt;/font&gt;" style="swimlane;childLayout=stackLayout;horizontal=1;startSize=50;horizontalStack=0;rounded=1;fontSize=14;fontStyle=0;strokeWidth=2;resizeParent=0;resizeLast=1;shadow=0;dashed=0;align=center;arcSize=4;whiteSpace=wrap;html=1;" vertex="1" parent="1">
          <mxGeometry x="45" y="-940" width="270" height="180" as="geometry" />
        </mxCell>
        <mxCell id="EZqbDn5W3lwKTQG9L9MM-2" value="&lt;font style=&quot;font-size: 16px;&quot;&gt;ID du produit (clé primaire)&lt;br&gt;Nom du produit&lt;br&gt;Description&lt;br&gt;Prix&lt;br&gt;Stock disponible&lt;/font&gt;" style="align=left;strokeColor=none;fillColor=none;spacingLeft=4;fontSize=12;verticalAlign=top;resizable=0;rotatable=0;part=1;html=1;" vertex="1" parent="EZqbDn5W3lwKTQG9L9MM-1">
          <mxGeometry y="50" width="270" height="130" as="geometry" />
        </mxCell>
        <mxCell id="EZqbDn5W3lwKTQG9L9MM-3" value="&lt;font style=&quot;font-size: 20px;&quot;&gt;Commande&lt;/font&gt;" style="swimlane;childLayout=stackLayout;horizontal=1;startSize=50;horizontalStack=0;rounded=1;fontSize=14;fontStyle=0;strokeWidth=2;resizeParent=0;resizeLast=1;shadow=0;dashed=0;align=center;arcSize=4;whiteSpace=wrap;html=1;" vertex="1" parent="1">
          <mxGeometry x="265" y="-660" width="300" height="120" as="geometry" />
        </mxCell>
        <mxCell id="EZqbDn5W3lwKTQG9L9MM-4" value="&lt;span style=&quot;font-size: 16px;&quot;&gt;ID de commande(clé primaire)&lt;br&gt;Date de commande&lt;br&gt;Etat de la commande&lt;br&gt;&lt;/span&gt;" style="align=left;strokeColor=none;fillColor=none;spacingLeft=4;fontSize=12;verticalAlign=top;resizable=0;rotatable=0;part=1;html=1;" vertex="1" parent="EZqbDn5W3lwKTQG9L9MM-3">
          <mxGeometry y="50" width="300" height="70" as="geometry" />
        </mxCell>
        <mxCell id="EZqbDn5W3lwKTQG9L9MM-5" value="&lt;font style=&quot;font-size: 20px;&quot;&gt;Client&lt;/font&gt;" style="swimlane;childLayout=stackLayout;horizontal=1;startSize=50;horizontalStack=0;rounded=1;fontSize=14;fontStyle=0;strokeWidth=2;resizeParent=0;resizeLast=1;shadow=0;dashed=0;align=center;arcSize=4;whiteSpace=wrap;html=1;" vertex="1" parent="1">
          <mxGeometry x="505" y="-340" width="290" height="180" as="geometry" />
        </mxCell>
        <mxCell id="EZqbDn5W3lwKTQG9L9MM-6" value="&lt;font style=&quot;font-size: 16px;&quot;&gt;ID de client(clé primaire)&lt;br&gt;Nom&lt;br&gt;Prénom&lt;br&gt;Adresse e-mail&lt;br&gt;Adresse del livraison&lt;br&gt;Numéro de téléphone&lt;/font&gt;" style="align=left;strokeColor=none;fillColor=none;spacingLeft=4;fontSize=12;verticalAlign=top;resizable=0;rotatable=0;part=1;html=1;" vertex="1" parent="EZqbDn5W3lwKTQG9L9MM-5">
          <mxGeometry y="50" width="290" height="130" as="geometry" />
        </mxCell>
        <mxCell id="EZqbDn5W3lwKTQG9L9MM-7" value="&lt;span style=&quot;font-size: 20px;&quot;&gt;Utilisateur/administrateur&lt;/span&gt;" style="swimlane;childLayout=stackLayout;horizontal=1;startSize=50;horizontalStack=0;rounded=1;fontSize=14;fontStyle=0;strokeWidth=2;resizeParent=0;resizeLast=1;shadow=0;dashed=0;align=center;arcSize=4;whiteSpace=wrap;html=1;" vertex="1" parent="1">
          <mxGeometry x="45" y="-330" width="290" height="140" as="geometry" />
        </mxCell>
        <mxCell id="EZqbDn5W3lwKTQG9L9MM-8" value="&lt;font style=&quot;font-size: 16px;&quot;&gt;ID de l&#39;utilisateur(clé primaire)&lt;br&gt;Nom d&#39;utilisateur&lt;br&gt;Mot de passe (crypté)&lt;br&gt;Role(utilisateur normal, administateur)&lt;/font&gt;" style="align=left;strokeColor=none;fillColor=none;spacingLeft=4;fontSize=12;verticalAlign=top;resizable=0;rotatable=0;part=1;html=1;" vertex="1" parent="EZqbDn5W3lwKTQG9L9MM-7">
          <mxGeometry y="50" width="290" height="90" as="geometry" />
        </mxCell>
        <mxCell id="EZqbDn5W3lwKTQG9L9MM-9" value="&lt;font style=&quot;font-size: 20px;&quot;&gt;Catégorie&lt;/font&gt;" style="swimlane;childLayout=stackLayout;horizontal=1;startSize=50;horizontalStack=0;rounded=1;fontSize=14;fontStyle=0;strokeWidth=2;resizeParent=0;resizeLast=1;shadow=0;dashed=0;align=center;arcSize=4;whiteSpace=wrap;html=1;" vertex="1" parent="1">
          <mxGeometry x="505" y="-940" width="290" height="130" as="geometry" />
        </mxCell>
        <mxCell id="EZqbDn5W3lwKTQG9L9MM-10" value="&lt;font style=&quot;font-size: 16px;&quot;&gt;ID de catégorie(clé primaire)&lt;br&gt;Nom de la catégorie&lt;br&gt;Description de la catégorie&lt;/font&gt;" style="align=left;strokeColor=none;fillColor=none;spacingLeft=4;fontSize=12;verticalAlign=top;resizable=0;rotatable=0;part=1;html=1;" vertex="1" parent="EZqbDn5W3lwKTQG9L9MM-9">
          <mxGeometry y="50" width="290" height="80" as="geometry" />
        </mxCell>
        <mxCell id="EZqbDn5W3lwKTQG9L9MM-19" value="" style="edgeStyle=entityRelationEdgeStyle;fontSize=12;html=1;endArrow=ERoneToMany;rounded=0;" edge="1" parent="1">
          <mxGeometry width="100" height="100" relative="1" as="geometry">
            <mxPoint x="315" y="-840" as="sourcePoint" />
            <mxPoint x="265" y="-600" as="targetPoint" />
            <Array as="points">
              <mxPoint x="425" y="-870" />
              <mxPoint x="375" y="-860" />
            </Array>
          </mxGeometry>
        </mxCell>
        <mxCell id="EZqbDn5W3lwKTQG9L9MM-20" value="" style="edgeStyle=entityRelationEdgeStyle;fontSize=12;html=1;endArrow=ERoneToMany;rounded=0;" edge="1" parent="1">
          <mxGeometry width="100" height="100" relative="1" as="geometry">
            <mxPoint x="565" y="-570" as="sourcePoint" />
            <mxPoint x="505" y="-280" as="targetPoint" />
            <Array as="points">
              <mxPoint x="665" y="-570" />
              <mxPoint x="515" y="-280" />
            </Array>
          </mxGeometry>
        </mxCell>
        <mxCell id="EZqbDn5W3lwKTQG9L9MM-26" value="&lt;font style=&quot;font-size: 14px;&quot;&gt;&lt;b&gt;N&lt;/b&gt;&lt;/font&gt;" style="edgeLabel;html=1;align=center;verticalAlign=middle;resizable=0;points=[];" vertex="1" connectable="0" parent="EZqbDn5W3lwKTQG9L9MM-20">
          <mxGeometry x="-0.9362" y="-1" relative="1" as="geometry">
            <mxPoint y="9" as="offset" />
          </mxGeometry>
        </mxCell>
        <mxCell id="EZqbDn5W3lwKTQG9L9MM-21" value="" style="edgeStyle=entityRelationEdgeStyle;fontSize=12;html=1;endArrow=ERmandOne;startArrow=ERmandOne;rounded=0;entryX=0;entryY=0.25;entryDx=0;entryDy=0;" edge="1" parent="1" target="EZqbDn5W3lwKTQG9L9MM-9">
          <mxGeometry width="100" height="100" relative="1" as="geometry">
            <mxPoint x="315" y="-870" as="sourcePoint" />
            <mxPoint x="495" y="-880" as="targetPoint" />
            <Array as="points">
              <mxPoint x="505" y="-900" />
              <mxPoint x="505" y="-910" />
            </Array>
          </mxGeometry>
        </mxCell>
        <mxCell id="EZqbDn5W3lwKTQG9L9MM-22" value="&lt;font style=&quot;font-size: 14px;&quot;&gt;&lt;b&gt;N&lt;/b&gt;&lt;/font&gt;" style="text;html=1;align=center;verticalAlign=middle;resizable=0;points=[];autosize=1;strokeColor=none;fillColor=none;" vertex="1" parent="1">
          <mxGeometry x="310" y="-902" width="30" height="30" as="geometry" />
        </mxCell>
        <mxCell id="EZqbDn5W3lwKTQG9L9MM-23" value="&lt;font style=&quot;font-size: 14px;&quot;&gt;&lt;b&gt;1&lt;/b&gt;&lt;/font&gt;" style="text;html=1;align=center;verticalAlign=middle;resizable=0;points=[];autosize=1;strokeColor=none;fillColor=none;" vertex="1" parent="1">
          <mxGeometry x="470" y="-932" width="30" height="30" as="geometry" />
        </mxCell>
        <mxCell id="EZqbDn5W3lwKTQG9L9MM-24" value="&lt;font style=&quot;font-size: 14px;&quot;&gt;&lt;b&gt;1&lt;/b&gt;&lt;/font&gt;" style="text;html=1;align=center;verticalAlign=middle;resizable=0;points=[];autosize=1;strokeColor=none;fillColor=none;" vertex="1" parent="1">
          <mxGeometry x="235" y="-630" width="30" height="30" as="geometry" />
        </mxCell>
        <mxCell id="EZqbDn5W3lwKTQG9L9MM-25" value="&lt;font style=&quot;font-size: 14px;&quot;&gt;&lt;b&gt;N&lt;/b&gt;&lt;/font&gt;" style="text;html=1;align=center;verticalAlign=middle;resizable=0;points=[];autosize=1;strokeColor=none;fillColor=none;" vertex="1" parent="1">
          <mxGeometry x="310" y="-865" width="30" height="30" as="geometry" />
        </mxCell>
        <mxCell id="EZqbDn5W3lwKTQG9L9MM-27" value="&lt;font style=&quot;font-size: 14px;&quot;&gt;&lt;b&gt;1&lt;/b&gt;&lt;/font&gt;" style="text;html=1;align=center;verticalAlign=middle;resizable=0;points=[];autosize=1;strokeColor=none;fillColor=none;" vertex="1" parent="1">
          <mxGeometry x="475" y="-312" width="30" height="30" as="geometry" />
        </mxCell>
        <mxCell id="EZqbDn5W3lwKTQG9L9MM-31" value="" style="edgeStyle=entityRelationEdgeStyle;fontSize=12;html=1;endArrow=ERoneToMany;rounded=0;entryX=0;entryY=0.25;entryDx=0;entryDy=0;" edge="1" parent="1" target="EZqbDn5W3lwKTQG9L9MM-6">
          <mxGeometry width="100" height="100" relative="1" as="geometry">
            <mxPoint x="335" y="-260" as="sourcePoint" />
            <mxPoint x="435" y="-360" as="targetPoint" />
            <Array as="points">
              <mxPoint x="205" y="-300" />
              <mxPoint x="295" y="-280" />
              <mxPoint x="505" y="-250" />
              <mxPoint x="265" y="-300" />
              <mxPoint x="115" y="-270" />
            </Array>
          </mxGeometry>
        </mxCell>
        <mxCell id="EZqbDn5W3lwKTQG9L9MM-35" value="&lt;font style=&quot;font-size: 14px;&quot;&gt;&lt;b&gt;1&lt;/b&gt;&lt;/font&gt;" style="edgeLabel;html=1;align=center;verticalAlign=middle;resizable=0;points=[];" vertex="1" connectable="0" parent="EZqbDn5W3lwKTQG9L9MM-31">
          <mxGeometry x="-0.8303" y="12" relative="1" as="geometry">
            <mxPoint as="offset" />
          </mxGeometry>
        </mxCell>
        <mxCell id="EZqbDn5W3lwKTQG9L9MM-32" value="" style="edgeStyle=orthogonalEdgeStyle;fontSize=12;html=1;endArrow=ERoneToMany;rounded=0;entryX=-0.01;entryY=0.12;entryDx=0;entryDy=0;entryPerimeter=0;" edge="1" parent="1" source="EZqbDn5W3lwKTQG9L9MM-7" target="EZqbDn5W3lwKTQG9L9MM-2">
          <mxGeometry width="100" height="100" relative="1" as="geometry">
            <mxPoint x="25.440000000000055" y="-300.0000000000002" as="sourcePoint" />
            <mxPoint x="15" y="-850" as="targetPoint" />
            <Array as="points">
              <mxPoint x="15" y="-270" />
              <mxPoint x="15" y="-570" />
              <mxPoint x="16" y="-874" />
            </Array>
          </mxGeometry>
        </mxCell>
        <mxCell id="EZqbDn5W3lwKTQG9L9MM-33" value="&lt;font size=&quot;1&quot; style=&quot;&quot;&gt;&lt;b style=&quot;font-size: 14px;&quot;&gt;1&lt;/b&gt;&lt;/font&gt;" style="text;html=1;align=center;verticalAlign=middle;resizable=0;points=[];autosize=1;strokeColor=none;fillColor=none;" vertex="1" parent="1">
          <mxGeometry x="10" y="-292" width="30" height="30" as="geometry" />
        </mxCell>
        <mxCell id="EZqbDn5W3lwKTQG9L9MM-34" value="&lt;font size=&quot;1&quot; style=&quot;&quot;&gt;&lt;b style=&quot;font-size: 14px;&quot;&gt;N&lt;/b&gt;&lt;/font&gt;" style="text;html=1;align=center;verticalAlign=middle;resizable=0;points=[];autosize=1;strokeColor=none;fillColor=none;" vertex="1" parent="1">
          <mxGeometry x="10" y="-902" width="30" height="30" as="geometry" />
        </mxCell>
        <mxCell id="EZqbDn5W3lwKTQG9L9MM-36" value="&lt;font style=&quot;font-size: 14px;&quot;&gt;&lt;b&gt;N&lt;/b&gt;&lt;/font&gt;" style="text;html=1;align=center;verticalAlign=middle;resizable=0;points=[];autosize=1;strokeColor=none;fillColor=none;" vertex="1" parent="1">
          <mxGeometry x="470" y="-262" width="30" height="30" as="geometry" />
        </mxCell>
        <mxCell id="EZqbDn5W3lwKTQG9L9MM-37" value="&lt;font style=&quot;font-size: 16px;&quot;&gt;&lt;b&gt;&lt;u&gt;Projet ;&lt;/u&gt;&lt;/b&gt;SAYNA-MERISESQL-ECOMMERCE&lt;b&gt;&lt;u&gt;&lt;br&gt;&lt;br&gt;&lt;br&gt;Modèle Conceptielle des données&lt;/u&gt;&lt;/b&gt;&lt;/font&gt;" style="text;html=1;strokeColor=none;fillColor=none;align=center;verticalAlign=middle;whiteSpace=wrap;rounded=0;" vertex="1" parent="1">
          <mxGeometry x="35" y="-1130" width="405" height="110" as="geometry" />
        </mxCell>
      </root>
    </mxGraphModel>
  </diagram>
  <diagram id="l-HZBtNT-Q3YdX4R5DdF" name="Page-2">
    <mxGraphModel dx="2200" dy="1330" grid="1" gridSize="10" guides="1" tooltips="1" connect="1" arrows="1" fold="1" page="1" pageScale="1" pageWidth="827" pageHeight="1169" math="0" shadow="0">
      <root>
        <mxCell id="0" />
        <mxCell id="1" parent="0" />
        <mxCell id="BGDzwU5qoIr-2Isn_FHj-1" value="&lt;font style=&quot;font-size: 14px;&quot;&gt;&lt;b&gt;Modèle Logique de donnée&amp;nbsp;&lt;/b&gt;&lt;/font&gt;" style="text;html=1;align=center;verticalAlign=middle;resizable=0;points=[];autosize=1;strokeColor=none;fillColor=none;" vertex="1" parent="1">
          <mxGeometry x="80" y="60" width="210" height="30" as="geometry" />
        </mxCell>
        <mxCell id="BGDzwU5qoIr-2Isn_FHj-4" value="&lt;font style=&quot;font-size: 12px;&quot;&gt;Produit&amp;nbsp; (&lt;u&gt;ID_produit&lt;/u&gt;,&amp;nbsp;&lt;span style=&quot;text-align: left;&quot;&gt;Nom_produit,&amp;nbsp;&lt;/span&gt;&lt;span style=&quot;text-align: left;&quot;&gt;Description,&amp;nbsp;&lt;/span&gt;&lt;span style=&quot;text-align: left;&quot;&gt;Prix,&amp;nbsp;&lt;/span&gt;&lt;span style=&quot;text-align: left;&quot;&gt;Catégorie,&amp;nbsp;&lt;/span&gt;&lt;span style=&quot;text-align: left;&quot;&gt;Stock_disponible, #&lt;/span&gt;&lt;/font&gt;ID_commande, #ID_categorie, #ID_utilisateur)" style="text;html=1;strokeColor=none;fillColor=none;align=center;verticalAlign=middle;whiteSpace=wrap;rounded=0;" vertex="1" parent="1">
          <mxGeometry x="75" y="100" width="720" height="30" as="geometry" />
        </mxCell>
        <mxCell id="dzGcLfEetHQzHxNTYTlS-1" value="&lt;font style=&quot;font-size: 12px;&quot;&gt;Catégorie (&lt;u&gt;ID_catégorie&lt;/u&gt;,&amp;nbsp;&lt;span style=&quot;text-align: left;&quot;&gt;Nom_catégorie,&amp;nbsp;&lt;/span&gt;&lt;span style=&quot;text-align: left;&quot;&gt;Description_catégorie)&lt;/span&gt;&lt;/font&gt;" style="text;html=1;align=center;verticalAlign=middle;resizable=0;points=[];autosize=1;strokeColor=none;fillColor=none;" vertex="1" parent="1">
          <mxGeometry x="75" y="160" width="370" height="30" as="geometry" />
        </mxCell>
        <mxCell id="DvJKr4QNkVqb0S4gnE1V-2" value="&lt;font style=&quot;font-size: 12px;&quot;&gt;Commande (&lt;u&gt;ID_commande&lt;/u&gt;,&amp;nbsp;&lt;span style=&quot;text-align: left;&quot;&gt;Date_commande,&amp;nbsp;&lt;/span&gt;&lt;span style=&quot;text-align: left;&quot;&gt;Etat_commande, #id_client&lt;/span&gt;)&lt;/font&gt;" style="text;html=1;align=center;verticalAlign=middle;resizable=0;points=[];autosize=1;strokeColor=none;fillColor=none;" vertex="1" parent="1">
          <mxGeometry x="80" y="130" width="420" height="30" as="geometry" />
        </mxCell>
        <mxCell id="mKOZ8OBbTlcOsfazsfZS-1" value="&lt;font style=&quot;font-size: 12px;&quot;&gt;Client (&lt;u&gt;ID_client&lt;/u&gt;,&amp;nbsp;&lt;span style=&quot;text-align: left;&quot;&gt;Nom,&amp;nbsp;&lt;/span&gt;&lt;span style=&quot;text-align: left;&quot;&gt;Prénom,&amp;nbsp;&lt;/span&gt;&lt;span style=&quot;text-align: left;&quot;&gt;Adresse_e-mail,&amp;nbsp;&lt;/span&gt;&lt;span style=&quot;text-align: left;&quot;&gt;Adresse_livraison,&amp;nbsp;&lt;/span&gt;&lt;span style=&quot;text-align: left;&quot;&gt;Numéro_téléphone,#id_uti&lt;/span&gt;&lt;/font&gt;&lt;span style=&quot;font-size: 16px; text-align: left;&quot;&gt;)&lt;/span&gt;" style="text;html=1;align=center;verticalAlign=middle;resizable=0;points=[];autosize=1;strokeColor=none;fillColor=none;" vertex="1" parent="1">
          <mxGeometry x="80" y="190" width="530" height="30" as="geometry" />
        </mxCell>
        <mxCell id="_x3OyiBf6Mt_WZO2gV9a-1" value="&lt;font style=&quot;font-size: 12px;&quot;&gt;Utilisateur/administrateur (ID_utilisateur,&amp;nbsp;&lt;span style=&quot;text-align: left;&quot;&gt;Nom_utilisateur,&amp;nbsp;&lt;/span&gt;&lt;span style=&quot;text-align: left;&quot;&gt;Mot_de_passe (crypté),&amp;nbsp;&lt;/span&gt;&lt;span style=&quot;text-align: left;&quot;&gt;Role(utilisateur normal, administateur))&lt;/span&gt;&lt;/font&gt;" style="text;html=1;align=center;verticalAlign=middle;resizable=0;points=[];autosize=1;strokeColor=none;fillColor=none;" vertex="1" parent="1">
          <mxGeometry x="75" y="220" width="670" height="30" as="geometry" />
        </mxCell>
      </root>
    </mxGraphModel>
  </diagram>
  <diagram id="GVHZK5gVHTBPM0EjfWPj" name="Page-3">
    <mxGraphModel dx="880" dy="1701" grid="1" gridSize="10" guides="1" tooltips="1" connect="1" arrows="1" fold="1" page="1" pageScale="1" pageWidth="827" pageHeight="1169" math="0" shadow="0">
      <root>
        <mxCell id="0" />
        <mxCell id="1" parent="0" />
        <mxCell id="YeliabiC44R5YWD68-r4-1" value="Produit" style="shape=table;startSize=30;container=1;collapsible=1;childLayout=tableLayout;fixedRows=1;rowLines=0;fontStyle=1;align=center;resizeLast=1;html=1;whiteSpace=wrap;" vertex="1" parent="1">
          <mxGeometry x="485" y="-680" width="246" height="220" as="geometry" />
        </mxCell>
        <mxCell id="YeliabiC44R5YWD68-r4-2" value="" style="shape=tableRow;horizontal=0;startSize=0;swimlaneHead=0;swimlaneBody=0;fillColor=none;collapsible=0;dropTarget=0;points=[[0,0.5],[1,0.5]];portConstraint=eastwest;top=0;left=0;right=0;bottom=0;html=1;" vertex="1" parent="YeliabiC44R5YWD68-r4-1">
          <mxGeometry y="30" width="246" height="40" as="geometry" />
        </mxCell>
        <mxCell id="YeliabiC44R5YWD68-r4-3" value="PK" style="shape=partialRectangle;connectable=0;fillColor=none;top=0;left=0;bottom=0;right=0;fontStyle=1;overflow=hidden;html=1;whiteSpace=wrap;" vertex="1" parent="YeliabiC44R5YWD68-r4-2">
          <mxGeometry width="60" height="40" as="geometry">
            <mxRectangle width="60" height="40" as="alternateBounds" />
          </mxGeometry>
        </mxCell>
        <mxCell id="YeliabiC44R5YWD68-r4-4" value="&lt;u style=&quot;border-color: var(--border-color); font-weight: 400; text-align: center;&quot;&gt;ID_produit(Automatique)&lt;/u&gt;" style="shape=partialRectangle;connectable=0;fillColor=none;top=0;left=0;bottom=0;right=0;align=left;spacingLeft=6;fontStyle=5;overflow=hidden;html=1;whiteSpace=wrap;" vertex="1" parent="YeliabiC44R5YWD68-r4-2">
          <mxGeometry x="60" width="186" height="40" as="geometry">
            <mxRectangle width="186" height="40" as="alternateBounds" />
          </mxGeometry>
        </mxCell>
        <mxCell id="YeliabiC44R5YWD68-r4-5" value="" style="shape=tableRow;horizontal=0;startSize=0;swimlaneHead=0;swimlaneBody=0;fillColor=none;collapsible=0;dropTarget=0;points=[[0,0.5],[1,0.5]];portConstraint=eastwest;top=0;left=0;right=0;bottom=1;html=1;" vertex="1" parent="YeliabiC44R5YWD68-r4-1">
          <mxGeometry y="70" width="246" height="50" as="geometry" />
        </mxCell>
        <mxCell id="YeliabiC44R5YWD68-r4-6" value="FK&lt;br&gt;FK&lt;br&gt;FK" style="shape=partialRectangle;connectable=0;fillColor=none;top=0;left=0;bottom=0;right=0;fontStyle=1;overflow=hidden;html=1;whiteSpace=wrap;" vertex="1" parent="YeliabiC44R5YWD68-r4-5">
          <mxGeometry width="60" height="50" as="geometry">
            <mxRectangle width="60" height="50" as="alternateBounds" />
          </mxGeometry>
        </mxCell>
        <mxCell id="YeliabiC44R5YWD68-r4-7" value="ID_utilisateur(Automatique)&lt;br&gt;ID_commande(Automatique)&lt;br&gt;ID_categorie(Automatique)" style="shape=partialRectangle;connectable=0;fillColor=none;top=0;left=0;bottom=0;right=0;align=left;spacingLeft=6;fontStyle=5;overflow=hidden;html=1;whiteSpace=wrap;" vertex="1" parent="YeliabiC44R5YWD68-r4-5">
          <mxGeometry x="60" width="186" height="50" as="geometry">
            <mxRectangle width="186" height="50" as="alternateBounds" />
          </mxGeometry>
        </mxCell>
        <mxCell id="YeliabiC44R5YWD68-r4-8" value="" style="shape=tableRow;horizontal=0;startSize=0;swimlaneHead=0;swimlaneBody=0;fillColor=none;collapsible=0;dropTarget=0;points=[[0,0.5],[1,0.5]];portConstraint=eastwest;top=0;left=0;right=0;bottom=0;html=1;" vertex="1" parent="YeliabiC44R5YWD68-r4-1">
          <mxGeometry y="120" width="246" height="100" as="geometry" />
        </mxCell>
        <mxCell id="YeliabiC44R5YWD68-r4-9" value="" style="shape=partialRectangle;connectable=0;fillColor=none;top=0;left=0;bottom=0;right=0;editable=1;overflow=hidden;html=1;whiteSpace=wrap;" vertex="1" parent="YeliabiC44R5YWD68-r4-8">
          <mxGeometry width="60" height="100" as="geometry">
            <mxRectangle width="60" height="100" as="alternateBounds" />
          </mxGeometry>
        </mxCell>
        <mxCell id="YeliabiC44R5YWD68-r4-10" value="&lt;font style=&quot;font-size: 13px;&quot;&gt;Nom du produit(VARCHAR)&lt;br style=&quot;border-color: var(--border-color);&quot;&gt;Description(VARCHAR)&lt;br style=&quot;border-color: var(--border-color);&quot;&gt;Prix(INT)&lt;br style=&quot;border-color: var(--border-color);&quot;&gt;Stock disponible(INT)&lt;/font&gt;" style="shape=partialRectangle;connectable=0;fillColor=none;top=0;left=0;bottom=0;right=0;align=left;spacingLeft=6;overflow=hidden;html=1;whiteSpace=wrap;" vertex="1" parent="YeliabiC44R5YWD68-r4-8">
          <mxGeometry x="60" width="186" height="100" as="geometry">
            <mxRectangle width="186" height="100" as="alternateBounds" />
          </mxGeometry>
        </mxCell>
        <mxCell id="nNN4PcpjZoaGznZWZg4I-1" value="Commande" style="shape=table;startSize=30;container=1;collapsible=1;childLayout=tableLayout;fixedRows=1;rowLines=0;fontStyle=1;align=center;resizeLast=1;html=1;whiteSpace=wrap;" vertex="1" parent="1">
          <mxGeometry x="130" y="-500" width="250" height="150" as="geometry" />
        </mxCell>
        <mxCell id="nNN4PcpjZoaGznZWZg4I-2" value="" style="shape=tableRow;horizontal=0;startSize=0;swimlaneHead=0;swimlaneBody=0;fillColor=none;collapsible=0;dropTarget=0;points=[[0,0.5],[1,0.5]];portConstraint=eastwest;top=0;left=0;right=0;bottom=0;html=1;" vertex="1" parent="nNN4PcpjZoaGznZWZg4I-1">
          <mxGeometry y="30" width="250" height="30" as="geometry" />
        </mxCell>
        <mxCell id="nNN4PcpjZoaGznZWZg4I-3" value="PK" style="shape=partialRectangle;connectable=0;fillColor=none;top=0;left=0;bottom=0;right=0;fontStyle=1;overflow=hidden;html=1;whiteSpace=wrap;" vertex="1" parent="nNN4PcpjZoaGznZWZg4I-2">
          <mxGeometry width="60" height="30" as="geometry">
            <mxRectangle width="60" height="30" as="alternateBounds" />
          </mxGeometry>
        </mxCell>
        <mxCell id="nNN4PcpjZoaGznZWZg4I-4" value="ID_commande(Automatique)" style="shape=partialRectangle;connectable=0;fillColor=none;top=0;left=0;bottom=0;right=0;align=left;spacingLeft=6;fontStyle=5;overflow=hidden;html=1;whiteSpace=wrap;" vertex="1" parent="nNN4PcpjZoaGznZWZg4I-2">
          <mxGeometry x="60" width="190" height="30" as="geometry">
            <mxRectangle width="190" height="30" as="alternateBounds" />
          </mxGeometry>
        </mxCell>
        <mxCell id="nNN4PcpjZoaGznZWZg4I-5" value="" style="shape=tableRow;horizontal=0;startSize=0;swimlaneHead=0;swimlaneBody=0;fillColor=none;collapsible=0;dropTarget=0;points=[[0,0.5],[1,0.5]];portConstraint=eastwest;top=0;left=0;right=0;bottom=1;html=1;" vertex="1" parent="nNN4PcpjZoaGznZWZg4I-1">
          <mxGeometry y="60" width="250" height="30" as="geometry" />
        </mxCell>
        <mxCell id="nNN4PcpjZoaGznZWZg4I-6" value="FK" style="shape=partialRectangle;connectable=0;fillColor=none;top=0;left=0;bottom=0;right=0;fontStyle=1;overflow=hidden;html=1;whiteSpace=wrap;" vertex="1" parent="nNN4PcpjZoaGznZWZg4I-5">
          <mxGeometry width="60" height="30" as="geometry">
            <mxRectangle width="60" height="30" as="alternateBounds" />
          </mxGeometry>
        </mxCell>
        <mxCell id="nNN4PcpjZoaGznZWZg4I-7" value="ID_client(Automatique)" style="shape=partialRectangle;connectable=0;fillColor=none;top=0;left=0;bottom=0;right=0;align=left;spacingLeft=6;fontStyle=5;overflow=hidden;html=1;whiteSpace=wrap;" vertex="1" parent="nNN4PcpjZoaGznZWZg4I-5">
          <mxGeometry x="60" width="190" height="30" as="geometry">
            <mxRectangle width="190" height="30" as="alternateBounds" />
          </mxGeometry>
        </mxCell>
        <mxCell id="nNN4PcpjZoaGznZWZg4I-8" value="" style="shape=tableRow;horizontal=0;startSize=0;swimlaneHead=0;swimlaneBody=0;fillColor=none;collapsible=0;dropTarget=0;points=[[0,0.5],[1,0.5]];portConstraint=eastwest;top=0;left=0;right=0;bottom=0;html=1;" vertex="1" parent="nNN4PcpjZoaGznZWZg4I-1">
          <mxGeometry y="90" width="250" height="30" as="geometry" />
        </mxCell>
        <mxCell id="nNN4PcpjZoaGznZWZg4I-9" value="" style="shape=partialRectangle;connectable=0;fillColor=none;top=0;left=0;bottom=0;right=0;editable=1;overflow=hidden;html=1;whiteSpace=wrap;" vertex="1" parent="nNN4PcpjZoaGznZWZg4I-8">
          <mxGeometry width="60" height="30" as="geometry">
            <mxRectangle width="60" height="30" as="alternateBounds" />
          </mxGeometry>
        </mxCell>
        <mxCell id="nNN4PcpjZoaGznZWZg4I-10" value="Date_commande(DATETIME)" style="shape=partialRectangle;connectable=0;fillColor=none;top=0;left=0;bottom=0;right=0;align=left;spacingLeft=6;overflow=hidden;html=1;whiteSpace=wrap;" vertex="1" parent="nNN4PcpjZoaGznZWZg4I-8">
          <mxGeometry x="60" width="190" height="30" as="geometry">
            <mxRectangle width="190" height="30" as="alternateBounds" />
          </mxGeometry>
        </mxCell>
        <mxCell id="nNN4PcpjZoaGznZWZg4I-11" value="" style="shape=tableRow;horizontal=0;startSize=0;swimlaneHead=0;swimlaneBody=0;fillColor=none;collapsible=0;dropTarget=0;points=[[0,0.5],[1,0.5]];portConstraint=eastwest;top=0;left=0;right=0;bottom=0;html=1;" vertex="1" parent="nNN4PcpjZoaGznZWZg4I-1">
          <mxGeometry y="120" width="250" height="30" as="geometry" />
        </mxCell>
        <mxCell id="nNN4PcpjZoaGznZWZg4I-12" value="" style="shape=partialRectangle;connectable=0;fillColor=none;top=0;left=0;bottom=0;right=0;editable=1;overflow=hidden;html=1;whiteSpace=wrap;" vertex="1" parent="nNN4PcpjZoaGznZWZg4I-11">
          <mxGeometry width="60" height="30" as="geometry">
            <mxRectangle width="60" height="30" as="alternateBounds" />
          </mxGeometry>
        </mxCell>
        <mxCell id="nNN4PcpjZoaGznZWZg4I-13" value="Etat_commande(VARCHAR)" style="shape=partialRectangle;connectable=0;fillColor=none;top=0;left=0;bottom=0;right=0;align=left;spacingLeft=6;overflow=hidden;html=1;whiteSpace=wrap;" vertex="1" parent="nNN4PcpjZoaGznZWZg4I-11">
          <mxGeometry x="60" width="190" height="30" as="geometry">
            <mxRectangle width="190" height="30" as="alternateBounds" />
          </mxGeometry>
        </mxCell>
        <mxCell id="0i4y37ZMj724uwcnKeWw-1" value="Categorie" style="shape=table;startSize=30;container=1;collapsible=1;childLayout=tableLayout;fixedRows=1;rowLines=0;fontStyle=1;align=center;resizeLast=1;html=1;" vertex="1" parent="1">
          <mxGeometry x="501" y="-370" width="230" height="120" as="geometry" />
        </mxCell>
        <mxCell id="0i4y37ZMj724uwcnKeWw-2" value="" style="shape=tableRow;horizontal=0;startSize=0;swimlaneHead=0;swimlaneBody=0;fillColor=none;collapsible=0;dropTarget=0;points=[[0,0.5],[1,0.5]];portConstraint=eastwest;top=0;left=0;right=0;bottom=1;" vertex="1" parent="0i4y37ZMj724uwcnKeWw-1">
          <mxGeometry y="30" width="230" height="30" as="geometry" />
        </mxCell>
        <mxCell id="0i4y37ZMj724uwcnKeWw-3" value="PK" style="shape=partialRectangle;connectable=0;fillColor=none;top=0;left=0;bottom=0;right=0;fontStyle=1;overflow=hidden;whiteSpace=wrap;html=1;" vertex="1" parent="0i4y37ZMj724uwcnKeWw-2">
          <mxGeometry width="30" height="30" as="geometry">
            <mxRectangle width="30" height="30" as="alternateBounds" />
          </mxGeometry>
        </mxCell>
        <mxCell id="0i4y37ZMj724uwcnKeWw-4" value="ID_categorie(Automatique)" style="shape=partialRectangle;connectable=0;fillColor=none;top=0;left=0;bottom=0;right=0;align=left;spacingLeft=6;fontStyle=5;overflow=hidden;whiteSpace=wrap;html=1;" vertex="1" parent="0i4y37ZMj724uwcnKeWw-2">
          <mxGeometry x="30" width="200" height="30" as="geometry">
            <mxRectangle width="200" height="30" as="alternateBounds" />
          </mxGeometry>
        </mxCell>
        <mxCell id="0i4y37ZMj724uwcnKeWw-5" value="" style="shape=tableRow;horizontal=0;startSize=0;swimlaneHead=0;swimlaneBody=0;fillColor=none;collapsible=0;dropTarget=0;points=[[0,0.5],[1,0.5]];portConstraint=eastwest;top=0;left=0;right=0;bottom=0;" vertex="1" parent="0i4y37ZMj724uwcnKeWw-1">
          <mxGeometry y="60" width="230" height="30" as="geometry" />
        </mxCell>
        <mxCell id="0i4y37ZMj724uwcnKeWw-6" value="" style="shape=partialRectangle;connectable=0;fillColor=none;top=0;left=0;bottom=0;right=0;editable=1;overflow=hidden;whiteSpace=wrap;html=1;" vertex="1" parent="0i4y37ZMj724uwcnKeWw-5">
          <mxGeometry width="30" height="30" as="geometry">
            <mxRectangle width="30" height="30" as="alternateBounds" />
          </mxGeometry>
        </mxCell>
        <mxCell id="0i4y37ZMj724uwcnKeWw-7" value="Nom_categorie(VARCHAR)" style="shape=partialRectangle;connectable=0;fillColor=none;top=0;left=0;bottom=0;right=0;align=left;spacingLeft=6;overflow=hidden;whiteSpace=wrap;html=1;" vertex="1" parent="0i4y37ZMj724uwcnKeWw-5">
          <mxGeometry x="30" width="200" height="30" as="geometry">
            <mxRectangle width="200" height="30" as="alternateBounds" />
          </mxGeometry>
        </mxCell>
        <mxCell id="0i4y37ZMj724uwcnKeWw-8" value="" style="shape=tableRow;horizontal=0;startSize=0;swimlaneHead=0;swimlaneBody=0;fillColor=none;collapsible=0;dropTarget=0;points=[[0,0.5],[1,0.5]];portConstraint=eastwest;top=0;left=0;right=0;bottom=0;" vertex="1" parent="0i4y37ZMj724uwcnKeWw-1">
          <mxGeometry y="90" width="230" height="30" as="geometry" />
        </mxCell>
        <mxCell id="0i4y37ZMj724uwcnKeWw-9" value="" style="shape=partialRectangle;connectable=0;fillColor=none;top=0;left=0;bottom=0;right=0;editable=1;overflow=hidden;whiteSpace=wrap;html=1;" vertex="1" parent="0i4y37ZMj724uwcnKeWw-8">
          <mxGeometry width="30" height="30" as="geometry">
            <mxRectangle width="30" height="30" as="alternateBounds" />
          </mxGeometry>
        </mxCell>
        <mxCell id="0i4y37ZMj724uwcnKeWw-10" value="Description_categorie(VARCHAR)" style="shape=partialRectangle;connectable=0;fillColor=none;top=0;left=0;bottom=0;right=0;align=left;spacingLeft=6;overflow=hidden;whiteSpace=wrap;html=1;" vertex="1" parent="0i4y37ZMj724uwcnKeWw-8">
          <mxGeometry x="30" width="200" height="30" as="geometry">
            <mxRectangle width="200" height="30" as="alternateBounds" />
          </mxGeometry>
        </mxCell>
        <mxCell id="vrprIrBr2q7fLcJBdNvk-1" value="Client" style="shape=table;startSize=30;container=1;collapsible=1;childLayout=tableLayout;fixedRows=1;rowLines=0;fontStyle=1;align=center;resizeLast=1;html=1;whiteSpace=wrap;" vertex="1" parent="1">
          <mxGeometry x="140" y="-930" width="250" height="210" as="geometry" />
        </mxCell>
        <mxCell id="vrprIrBr2q7fLcJBdNvk-2" value="" style="shape=tableRow;horizontal=0;startSize=0;swimlaneHead=0;swimlaneBody=0;fillColor=none;collapsible=0;dropTarget=0;points=[[0,0.5],[1,0.5]];portConstraint=eastwest;top=0;left=0;right=0;bottom=0;html=1;" vertex="1" parent="vrprIrBr2q7fLcJBdNvk-1">
          <mxGeometry y="30" width="250" height="30" as="geometry" />
        </mxCell>
        <mxCell id="vrprIrBr2q7fLcJBdNvk-3" value="PK" style="shape=partialRectangle;connectable=0;fillColor=none;top=0;left=0;bottom=0;right=0;fontStyle=1;overflow=hidden;html=1;whiteSpace=wrap;" vertex="1" parent="vrprIrBr2q7fLcJBdNvk-2">
          <mxGeometry width="60" height="30" as="geometry">
            <mxRectangle width="60" height="30" as="alternateBounds" />
          </mxGeometry>
        </mxCell>
        <mxCell id="vrprIrBr2q7fLcJBdNvk-4" value="&lt;u style=&quot;border-color: var(--border-color); text-align: center;&quot;&gt;ID_client(Automatique)&lt;/u&gt;" style="shape=partialRectangle;connectable=0;fillColor=none;top=0;left=0;bottom=0;right=0;align=left;spacingLeft=6;fontStyle=5;overflow=hidden;html=1;whiteSpace=wrap;" vertex="1" parent="vrprIrBr2q7fLcJBdNvk-2">
          <mxGeometry x="60" width="190" height="30" as="geometry">
            <mxRectangle width="190" height="30" as="alternateBounds" />
          </mxGeometry>
        </mxCell>
        <mxCell id="vrprIrBr2q7fLcJBdNvk-5" value="" style="shape=tableRow;horizontal=0;startSize=0;swimlaneHead=0;swimlaneBody=0;fillColor=none;collapsible=0;dropTarget=0;points=[[0,0.5],[1,0.5]];portConstraint=eastwest;top=0;left=0;right=0;bottom=1;html=1;" vertex="1" parent="vrprIrBr2q7fLcJBdNvk-1">
          <mxGeometry y="60" width="250" height="30" as="geometry" />
        </mxCell>
        <mxCell id="vrprIrBr2q7fLcJBdNvk-6" value="FK" style="shape=partialRectangle;connectable=0;fillColor=none;top=0;left=0;bottom=0;right=0;fontStyle=1;overflow=hidden;html=1;whiteSpace=wrap;" vertex="1" parent="vrprIrBr2q7fLcJBdNvk-5">
          <mxGeometry width="60" height="30" as="geometry">
            <mxRectangle width="60" height="30" as="alternateBounds" />
          </mxGeometry>
        </mxCell>
        <mxCell id="vrprIrBr2q7fLcJBdNvk-7" value="id_utilisateur(Automatique)" style="shape=partialRectangle;connectable=0;fillColor=none;top=0;left=0;bottom=0;right=0;align=left;spacingLeft=6;fontStyle=5;overflow=hidden;html=1;whiteSpace=wrap;" vertex="1" parent="vrprIrBr2q7fLcJBdNvk-5">
          <mxGeometry x="60" width="190" height="30" as="geometry">
            <mxRectangle width="190" height="30" as="alternateBounds" />
          </mxGeometry>
        </mxCell>
        <mxCell id="vrprIrBr2q7fLcJBdNvk-8" value="" style="shape=tableRow;horizontal=0;startSize=0;swimlaneHead=0;swimlaneBody=0;fillColor=none;collapsible=0;dropTarget=0;points=[[0,0.5],[1,0.5]];portConstraint=eastwest;top=0;left=0;right=0;bottom=0;html=1;" vertex="1" parent="vrprIrBr2q7fLcJBdNvk-1">
          <mxGeometry y="90" width="250" height="100" as="geometry" />
        </mxCell>
        <mxCell id="vrprIrBr2q7fLcJBdNvk-9" value="" style="shape=partialRectangle;connectable=0;fillColor=none;top=0;left=0;bottom=0;right=0;editable=1;overflow=hidden;html=1;whiteSpace=wrap;" vertex="1" parent="vrprIrBr2q7fLcJBdNvk-8">
          <mxGeometry width="60" height="100" as="geometry">
            <mxRectangle width="60" height="100" as="alternateBounds" />
          </mxGeometry>
        </mxCell>
        <mxCell id="vrprIrBr2q7fLcJBdNvk-10" value="&lt;font style=&quot;border-color: var(--border-color); text-align: center;&quot;&gt;&amp;nbsp;Nom (VARCHAR)&lt;br&gt;&amp;nbsp;&lt;span style=&quot;border-color: var(--border-color); text-align: left;&quot;&gt;Prénom (VARCHAR)&lt;br&gt;&lt;/span&gt;&lt;span style=&quot;border-color: var(--border-color); text-align: left;&quot;&gt;&amp;nbsp;Adresse_email (VARCHAR)&lt;br&gt;&lt;/span&gt;&lt;span style=&quot;border-color: var(--border-color); text-align: left;&quot;&gt;&amp;nbsp;Adresse_livraison(VARCHAR)&lt;br&gt;&lt;/span&gt;&lt;span style=&quot;border-color: var(--border-color); text-align: left;&quot;&gt;&amp;nbsp;Numéro_téléphone(INT(13)&lt;/span&gt;&lt;/font&gt;&lt;span style=&quot;border-color: var(--border-color); font-size: 16px;&quot;&gt;)&lt;/span&gt;" style="shape=partialRectangle;connectable=0;fillColor=none;top=0;left=0;bottom=0;right=0;align=left;spacingLeft=6;overflow=hidden;html=1;whiteSpace=wrap;" vertex="1" parent="vrprIrBr2q7fLcJBdNvk-8">
          <mxGeometry x="60" width="190" height="100" as="geometry">
            <mxRectangle width="190" height="100" as="alternateBounds" />
          </mxGeometry>
        </mxCell>
        <mxCell id="vrprIrBr2q7fLcJBdNvk-11" value="" style="shape=tableRow;horizontal=0;startSize=0;swimlaneHead=0;swimlaneBody=0;fillColor=none;collapsible=0;dropTarget=0;points=[[0,0.5],[1,0.5]];portConstraint=eastwest;top=0;left=0;right=0;bottom=0;html=1;" vertex="1" parent="vrprIrBr2q7fLcJBdNvk-1">
          <mxGeometry y="190" width="250" height="20" as="geometry" />
        </mxCell>
        <mxCell id="vrprIrBr2q7fLcJBdNvk-12" value="" style="shape=partialRectangle;connectable=0;fillColor=none;top=0;left=0;bottom=0;right=0;editable=1;overflow=hidden;html=1;whiteSpace=wrap;" vertex="1" parent="vrprIrBr2q7fLcJBdNvk-11">
          <mxGeometry width="60" height="20" as="geometry">
            <mxRectangle width="60" height="20" as="alternateBounds" />
          </mxGeometry>
        </mxCell>
        <mxCell id="vrprIrBr2q7fLcJBdNvk-13" value="" style="shape=partialRectangle;connectable=0;fillColor=none;top=0;left=0;bottom=0;right=0;align=left;spacingLeft=6;overflow=hidden;html=1;whiteSpace=wrap;" vertex="1" parent="vrprIrBr2q7fLcJBdNvk-11">
          <mxGeometry x="60" width="190" height="20" as="geometry">
            <mxRectangle width="190" height="20" as="alternateBounds" />
          </mxGeometry>
        </mxCell>
        <mxCell id="qeq_vSLd4kqFfsNQ4you-1" value="Utilisateur/administrateur" style="shape=table;startSize=30;container=1;collapsible=1;childLayout=tableLayout;fixedRows=1;rowLines=0;fontStyle=1;align=center;resizeLast=1;html=1;" vertex="1" parent="1">
          <mxGeometry x="500" y="-925" width="240" height="140" as="geometry" />
        </mxCell>
        <mxCell id="qeq_vSLd4kqFfsNQ4you-2" value="" style="shape=tableRow;horizontal=0;startSize=0;swimlaneHead=0;swimlaneBody=0;fillColor=none;collapsible=0;dropTarget=0;points=[[0,0.5],[1,0.5]];portConstraint=eastwest;top=0;left=0;right=0;bottom=1;" vertex="1" parent="qeq_vSLd4kqFfsNQ4you-1">
          <mxGeometry y="30" width="240" height="30" as="geometry" />
        </mxCell>
        <mxCell id="qeq_vSLd4kqFfsNQ4you-3" value="PK" style="shape=partialRectangle;connectable=0;fillColor=none;top=0;left=0;bottom=0;right=0;fontStyle=1;overflow=hidden;whiteSpace=wrap;html=1;" vertex="1" parent="qeq_vSLd4kqFfsNQ4you-2">
          <mxGeometry width="30" height="30" as="geometry">
            <mxRectangle width="30" height="30" as="alternateBounds" />
          </mxGeometry>
        </mxCell>
        <mxCell id="qeq_vSLd4kqFfsNQ4you-4" value="ID_utilisateur (Automatique)" style="shape=partialRectangle;connectable=0;fillColor=none;top=0;left=0;bottom=0;right=0;align=left;spacingLeft=6;fontStyle=5;overflow=hidden;whiteSpace=wrap;html=1;" vertex="1" parent="qeq_vSLd4kqFfsNQ4you-2">
          <mxGeometry x="30" width="210" height="30" as="geometry">
            <mxRectangle width="210" height="30" as="alternateBounds" />
          </mxGeometry>
        </mxCell>
        <mxCell id="qeq_vSLd4kqFfsNQ4you-5" value="" style="shape=tableRow;horizontal=0;startSize=0;swimlaneHead=0;swimlaneBody=0;fillColor=none;collapsible=0;dropTarget=0;points=[[0,0.5],[1,0.5]];portConstraint=eastwest;top=0;left=0;right=0;bottom=0;" vertex="1" parent="qeq_vSLd4kqFfsNQ4you-1">
          <mxGeometry y="60" width="240" height="20" as="geometry" />
        </mxCell>
        <mxCell id="qeq_vSLd4kqFfsNQ4you-6" value="" style="shape=partialRectangle;connectable=0;fillColor=none;top=0;left=0;bottom=0;right=0;editable=1;overflow=hidden;whiteSpace=wrap;html=1;" vertex="1" parent="qeq_vSLd4kqFfsNQ4you-5">
          <mxGeometry width="30" height="20" as="geometry">
            <mxRectangle width="30" height="20" as="alternateBounds" />
          </mxGeometry>
        </mxCell>
        <mxCell id="qeq_vSLd4kqFfsNQ4you-7" value="Nom_utilisateur (VARCHAR)" style="shape=partialRectangle;connectable=0;fillColor=none;top=0;left=0;bottom=0;right=0;align=left;spacingLeft=6;overflow=hidden;whiteSpace=wrap;html=1;" vertex="1" parent="qeq_vSLd4kqFfsNQ4you-5">
          <mxGeometry x="30" width="210" height="20" as="geometry">
            <mxRectangle width="210" height="20" as="alternateBounds" />
          </mxGeometry>
        </mxCell>
        <mxCell id="qeq_vSLd4kqFfsNQ4you-8" value="" style="shape=tableRow;horizontal=0;startSize=0;swimlaneHead=0;swimlaneBody=0;fillColor=none;collapsible=0;dropTarget=0;points=[[0,0.5],[1,0.5]];portConstraint=eastwest;top=0;left=0;right=0;bottom=0;" vertex="1" parent="qeq_vSLd4kqFfsNQ4you-1">
          <mxGeometry y="80" width="240" height="30" as="geometry" />
        </mxCell>
        <mxCell id="qeq_vSLd4kqFfsNQ4you-9" value="" style="shape=partialRectangle;connectable=0;fillColor=none;top=0;left=0;bottom=0;right=0;editable=1;overflow=hidden;whiteSpace=wrap;html=1;" vertex="1" parent="qeq_vSLd4kqFfsNQ4you-8">
          <mxGeometry width="30" height="30" as="geometry">
            <mxRectangle width="30" height="30" as="alternateBounds" />
          </mxGeometry>
        </mxCell>
        <mxCell id="qeq_vSLd4kqFfsNQ4you-10" value="Mot_de_passe_utilisateur(Password)" style="shape=partialRectangle;connectable=0;fillColor=none;top=0;left=0;bottom=0;right=0;align=left;spacingLeft=6;overflow=hidden;whiteSpace=wrap;html=1;" vertex="1" parent="qeq_vSLd4kqFfsNQ4you-8">
          <mxGeometry x="30" width="210" height="30" as="geometry">
            <mxRectangle width="210" height="30" as="alternateBounds" />
          </mxGeometry>
        </mxCell>
        <mxCell id="qeq_vSLd4kqFfsNQ4you-11" value="" style="shape=tableRow;horizontal=0;startSize=0;swimlaneHead=0;swimlaneBody=0;fillColor=none;collapsible=0;dropTarget=0;points=[[0,0.5],[1,0.5]];portConstraint=eastwest;top=0;left=0;right=0;bottom=0;" vertex="1" parent="qeq_vSLd4kqFfsNQ4you-1">
          <mxGeometry y="110" width="240" height="30" as="geometry" />
        </mxCell>
        <mxCell id="qeq_vSLd4kqFfsNQ4you-12" value="" style="shape=partialRectangle;connectable=0;fillColor=none;top=0;left=0;bottom=0;right=0;editable=1;overflow=hidden;whiteSpace=wrap;html=1;" vertex="1" parent="qeq_vSLd4kqFfsNQ4you-11">
          <mxGeometry width="30" height="30" as="geometry">
            <mxRectangle width="30" height="30" as="alternateBounds" />
          </mxGeometry>
        </mxCell>
        <mxCell id="qeq_vSLd4kqFfsNQ4you-13" value="Role_utilisateur (VARCHAR)" style="shape=partialRectangle;connectable=0;fillColor=none;top=0;left=0;bottom=0;right=0;align=left;spacingLeft=6;overflow=hidden;whiteSpace=wrap;html=1;" vertex="1" parent="qeq_vSLd4kqFfsNQ4you-11">
          <mxGeometry x="30" width="210" height="30" as="geometry">
            <mxRectangle width="210" height="30" as="alternateBounds" />
          </mxGeometry>
        </mxCell>
        <mxCell id="qeq_vSLd4kqFfsNQ4you-24" style="edgeStyle=orthogonalEdgeStyle;rounded=0;orthogonalLoop=1;jettySize=auto;html=1;exitX=0;exitY=0.5;exitDx=0;exitDy=0;" edge="1" parent="1" source="qeq_vSLd4kqFfsNQ4you-2" target="vrprIrBr2q7fLcJBdNvk-5">
          <mxGeometry relative="1" as="geometry" />
        </mxCell>
        <mxCell id="qeq_vSLd4kqFfsNQ4you-27" style="edgeStyle=orthogonalEdgeStyle;rounded=0;orthogonalLoop=1;jettySize=auto;html=1;exitX=0;exitY=0.5;exitDx=0;exitDy=0;entryX=-0.004;entryY=0.84;entryDx=0;entryDy=0;entryPerimeter=0;" edge="1" parent="1" source="0i4y37ZMj724uwcnKeWw-2" target="YeliabiC44R5YWD68-r4-5">
          <mxGeometry relative="1" as="geometry" />
        </mxCell>
        <mxCell id="qeq_vSLd4kqFfsNQ4you-28" style="edgeStyle=orthogonalEdgeStyle;rounded=0;orthogonalLoop=1;jettySize=auto;html=1;exitX=1;exitY=0.5;exitDx=0;exitDy=0;" edge="1" parent="1" source="nNN4PcpjZoaGznZWZg4I-2" target="YeliabiC44R5YWD68-r4-5">
          <mxGeometry relative="1" as="geometry" />
        </mxCell>
        <mxCell id="qeq_vSLd4kqFfsNQ4you-30" style="edgeStyle=orthogonalEdgeStyle;rounded=0;orthogonalLoop=1;jettySize=auto;html=1;exitX=1;exitY=0.5;exitDx=0;exitDy=0;entryX=1.016;entryY=0.26;entryDx=0;entryDy=0;entryPerimeter=0;" edge="1" parent="1" source="qeq_vSLd4kqFfsNQ4you-2" target="YeliabiC44R5YWD68-r4-5">
          <mxGeometry relative="1" as="geometry" />
        </mxCell>
        <mxCell id="qeq_vSLd4kqFfsNQ4you-31" style="edgeStyle=orthogonalEdgeStyle;rounded=0;orthogonalLoop=1;jettySize=auto;html=1;exitX=0;exitY=0.5;exitDx=0;exitDy=0;entryX=0;entryY=0.5;entryDx=0;entryDy=0;" edge="1" parent="1" source="vrprIrBr2q7fLcJBdNvk-2" target="nNN4PcpjZoaGznZWZg4I-2">
          <mxGeometry relative="1" as="geometry" />
        </mxCell>
        <mxCell id="qeq_vSLd4kqFfsNQ4you-32" value="&lt;font style=&quot;font-size: 14px;&quot;&gt;&lt;b&gt;&lt;u&gt;Modèle Physique de donnée&lt;/u&gt;&lt;/b&gt;&lt;/font&gt;" style="text;html=1;align=center;verticalAlign=middle;resizable=0;points=[];autosize=1;strokeColor=none;fillColor=none;" vertex="1" parent="1">
          <mxGeometry x="25" y="-1062" width="210" height="30" as="geometry" />
        </mxCell>
      </root>
    </mxGraphModel>
  </diagram>
</mxfile>
